PathFileType	4	(X/Y/Z)	C:/Users/beibeiliu/ov580/test_trc/User1\sequence.22_training_dense_right.trc
DataRate	CameraRate	NumFrames	NumMarkers	Units	OrigDataRate	OrigDataStartFrame	OrigNumFrames
120	120	12	19	mm	120	205	273
Frame#	Time	ThumbCMC			ThumbMCP			ThumbIP			ThumbTip			IndexMCP			IndexPIP			IndexTip			MiddleMCP			MiddlePIP			MiddleTip			RingMCP			RingPIP			RingTip			PinkyMCP			PinkyPIP			PinkyTip			BackHand1			BackHand2			BackHand3	
		X0	Y0	Z0	X1	Y1	Z1	X2	Y2	Z2	X3	Y3	Z3	X4	Y4	Z4	X5	Y5	Z5	X6	Y6	Z6	X7	Y7	Z7	X8	Y8	Z8	X9	Y9	Z9	X10	Y10	Z10	X11	Y11	Z11	X12	Y12	Z12	X13	Y13	Z13	X14	Y14	Z14	X15	Y15	Z15	X16	Y16	Z16	X17	Y17	Z17	X18	Y18	Z18	
204	1.7	157.995	7.9564	60.1861	150.17	-4.87609	24.1176	151.424	-9.82584	-4.22741	149.652	-18.7915	-24.6753	222.691	4.9139	0.117644	224.348	-2.36111	-27.419	218.541	-20.3448	-52.4289	215.249	-24.2105	-3.31609	184.158	-34.2333	-11.5722	167.588	-21.1689	22.356	208.821	-43.9755	3.47099	175.514	-49.9848	7.64308	172.281	-34.0345	37.1134	208.696	-61.0418	21.0748	177.895	-60.0166	21.5309	175.43	-41.3321	46.6685	218.585	-29.4889	67.2931	203.391	-29.9869	98.8922	198.972	4.38197	76.2004	
205	1.70833	159.113	7.92618	58.9507	146.228	-1.34812	24.4463	150.782	-9.663	-2.87594	152.783	-19.4353	-24.6203	220.94	3.83198	-0.381951	222.624	-4.74595	-28.4073	217.11	-17.4499	-48.0247	215.317	-23.9815	-0.110136	184.267	-33.5949	-12.0159	168.724	-22.159	26.1058	208.605	-47.3071	3.9262	176.588	-47.9595	3.70729	171.082	-34.6288	34.2892	208.434	-59.8005	22.8221	177.729	-58.2521	19.037	175.111	-40.0223	47.7375	221.019	-31.9784	67.8299	201.071	-27.6688	100.379	200.987	2.98189	76.5692	
206	1.71667	160.252	9.01473	58.7472	148.935	-3.12097	22.2009	151.685	-10.4284	-6.36247	151.325	-19.12	-26.1526	220.899	3.08126	0.495244	221.289	-4.63534	-25.8871	214.851	-19.7732	-50.2658	216.061	-22.8897	-0.384664	183.927	-34.4109	-12.9861	167.477	-21.7447	22.8966	210.328	-45.6119	6.95257	174.054	-48.6613	6.24164	171.92	-36.5427	38.6883	207.214	-61.041	21.8276	176.896	-55.1485	19.3407	174.081	-40.988	46.0738	218.594	-28.4478	66.7377	202.745	-31.3638	97.5677	200.228	0.997889	75.3499	
207	1.725	158.206	8.73589	60.7455	150.459	-3.96778	23.5714	150.12	-8.21448	-5.91148	148.489	-17.3525	-25.5106	219.866	5.46881	-0.59208	221.898	-6.63813	-26.2005	213.799	-18.6975	-48.4292	212.739	-23.2714	-5.3139	183.703	-33.0297	-13.9592	166.777	-20.0554	22.4674	209.513	-44.5146	7.39728	173.192	-47.6456	6.57397	169.903	-37.2383	35.0449	206.869	-60.1353	22.3617	174.775	-59.0973	20.1511	174.276	-40.5261	45.8957	218.814	-28.86	67.3402	201.7	-31.8888	101.779	199.393	2.69583	78.3708	
208	1.73333	158.85	9.79224	58.9387	147.001	-1.96198	24.668	150.973	-8.42476	-4.80337	149.305	-15.6174	-28.9448	219.725	6.61109	0.971804	221.915	-3.05746	-24.2352	213.803	-19.9598	-53.3632	212.935	-21.8122	-5.3397	183.044	-34.1887	-13.939	166.852	-23.6737	21.2975	209.116	-42.5081	5.49866	177.346	-46.7087	1.36066	169.883	-37.0281	34.5618	203.997	-61.2238	18.3241	176.469	-60.7743	17.677	173.779	-40.8215	44.8341	216.848	-28.3411	66.1095	203.213	-28.7517	98.04	201.715	2.16772	73.9692	
209	1.74167	158.443	11.7077	59.2115	149.636	-2.05518	23.444	150.774	-7.93313	-2.17228	148.754	-14.9719	-27.904	219.714	5.58909	2.7149	222.444	-6.976	-25.6904	216.506	-20.4604	-48.3012	214.338	-24.4294	-1.82968	182.177	-34.6436	-13.1485	166.979	-20.4761	20.5723	208.522	-44.1327	4.85261	172.487	-48.3804	6.37127	171.579	-36.4306	38.5073	204.296	-61.4873	19.0594	174.895	-56.0594	19.5692	173.859	-40.6434	46.2809	219.3	-33.216	65.2606	202.091	-32.2971	98.0385	202.007	-0.461392	74.6633	
210	1.75	163.209	9.04547	61.7191	153.69	-2.32903	23.7795	152.956	-8.08853	-3.48358	146.09	-12.4923	-22.399	222.388	2.89137	-0.457931	224.842	-8.6689	-23.7235	218.178	-20.2473	-53.1934	212.684	-27.8067	-6.02929	180.362	-29.9497	-14.683	167.04	-21.6884	19.9373	208.818	-46.3892	6.45979	173.32	-45.6478	3.68773	168.954	-33.8718	34.2345	205.303	-64.0273	22.4111	175.407	-57.166	18.3659	175.266	-41.2334	45.5703	217.086	-31.2237	65.956	202.073	-30.3559	100.849	202.819	1.415	76.5359	
211	1.75833	163.545	13.4015	57.8479	148.655	3.23617	25.2519	148.624	-2.45975	-4.1012	143.049	-8.30345	-25.7908	224.19	-0.514937	-2.46677	226.777	-10.4399	-26.3304	220.582	-23.3893	-53.6225	214.3	-26.3823	-4.10021	182.18	-32.4709	-14.7867	166.685	-21.0931	19.4939	204.596	-46.7396	3.14367	171.173	-49.1212	4.04916	168.86	-37.1613	35.4129	201.035	-66.1874	19.6352	175.566	-58.2535	15.4855	173.389	-41.688	47.0965	218.829	-33.056	64.0437	200.6	-34.3767	98.9315	206.453	-1.02604	74.5076	
212	1.76667	167.113	14.4498	55.9409	153.127	1.45172	26.1133	148.761	-0.275063	-4.02539	143.789	-6.50568	-26.7648	226.69	-3.29268	-1.35455	227.901	-13.4118	-24.0699	223.98	-26.5591	-52.1708	213.451	-31.9239	-6.79102	182.895	-31.9918	-16.4267	166.738	-22.0118	18.5449	202.897	-53.9558	2.86208	170.182	-46.6989	2.83938	167.557	-35.4517	34.2569	197.319	-68.6197	18.6364	170.549	-57.2702	17.2325	172.001	-42.3263	46.3384	218.087	-36.5803	66.2002	201.02	-32.6213	95.8648	206.387	-1.13971	74.3408	
213	1.775	168.952	13.0421	58.1422	155.06	4.17289	21.3192	151.67	-1.29915	-5.5561	147.466	-7.17757	-29.2959	227.135	-5.34496	2.15391	230.238	-16.44	-24.1214	226.636	-29.6244	-52.4243	215.527	-33.1131	-3.28887	181.491	-34.6038	-16.5523	168.017	-22.9597	22.0411	203.563	-51.2371	2.07196	171.726	-48.7443	0.538354	167.395	-32.5387	33.1699	197.313	-68.9057	19.9256	168.884	-59.3436	16.9648	170.969	-40.7417	41.7679	216.131	-40.244	68.9444	199.093	-36.2499	100.04	205.558	-2.16952	77.6929	
214	1.78333	169.486	14.5027	58.6496	156.174	3.05966	26.095	152.622	0.485477	-5.80615	145.346	-4.22382	-25.9058	228.654	-9.57644	0.642481	230.782	-22.4606	-23.5589	227.024	-33.1583	-50.5042	214.146	-34.0061	-4.97445	182.509	-38.2374	-16.5466	166.761	-20.7021	17.6814	202.522	-53.3494	1.84095	168.566	-48.1822	0.00947162	164.033	-35.8974	30.3596	193.601	-72.4538	19.3466	167.607	-56.6477	16.3933	169.624	-40.3553	42.7125	216.594	-45.4951	65.426	201.249	-40.4009	98.6369	206.134	-7.67942	76.7638	
215	1.79167	173.667	13.24	57.3656	159.203	4.05483	22.4005	154.682	0.603855	-2.7417	147.171	-1.90491	-25.9463	229.409	-17.6293	0.0667285	232.235	-27.5058	-25.4356	227.432	-39.3943	-49.1394	211.909	-36.9257	-7.06234	180.876	-37.4826	-17.5428	166.345	-22.9501	19.2681	198.38	-59.5364	3.94029	166.346	-46.2463	0.132513	162.843	-34.0936	27.9153	190.027	-72.4608	18.3697	163.278	-60.0718	14.6979	163.251	-39.9416	40.2828	212.858	-46.1055	66.9857	198.46	-39.6209	98.3245	210.191	-7.05855	74.6275	
